<?xml version="1.0" encoding="UTF-8" standalone="no"?>
<!-- Created with Inkscape (http://www.inkscape.org/) -->

<svg
   width="250mm"
   height="250mm"
   viewBox="0 0 250 250"
   version="1.1"
   id="svg1"
   xml:space="preserve"
   xmlns="http://www.w3.org/2000/svg"
   xmlns:svg="http://www.w3.org/2000/svg"><defs
     id="defs1"><clipPath
       clipPathUnits="userSpaceOnUse"
       id="clipPath29"><rect
         style="opacity:1;fill:#2d3b75;fill-opacity:1;stroke:#162041;stroke-width:4.82575;stroke-linecap:round;stroke-linejoin:miter;stroke-dasharray:none;stroke-dashoffset:0;stroke-opacity:1;paint-order:normal"
         id="rect29"
         width="126.59414"
         height="22.099754"
         x="61.698475"
         y="168.05019"
         d="M 61.698475,168.05019 H 188.29261 v 22.09975 H 61.698475 Z" /></clipPath></defs><g
     id="layer1"><g
       id="g18"
       transform="matrix(1.2598386,0,0,1.2598386,53.885868,-60.302447)"
       style="display:none"><path
         id="rect1"
         style="color:#000000;font-style:normal;font-variant:normal;font-weight:normal;font-stretch:normal;font-size:medium;line-height:normal;font-family:sans-serif;font-variant-ligatures:normal;font-variant-position:normal;font-variant-caps:normal;font-variant-numeric:normal;font-variant-alternates:normal;font-variant-east-asian:normal;font-feature-settings:normal;font-variation-settings:normal;text-indent:0;text-align:start;text-decoration-line:none;text-decoration-style:solid;text-decoration-color:#000000;letter-spacing:normal;word-spacing:normal;text-transform:none;writing-mode:lr-tb;direction:ltr;text-orientation:mixed;dominant-baseline:auto;baseline-shift:baseline;text-anchor:start;white-space:normal;shape-padding:0;shape-margin:0;inline-size:0;clip-rule:nonzero;display:inline;overflow:visible;visibility:visible;isolation:auto;mix-blend-mode:normal;color-interpolation:sRGB;color-interpolation-filters:linearRGB;solid-color:#000000;solid-opacity:1;fill:#2d3b75;fill-opacity:1;fill-rule:nonzero;stroke:#162041;stroke-width:3.00038;stroke-linecap:round;stroke-linejoin:miter;stroke-miterlimit:4;stroke-dasharray:none;stroke-dashoffset:0;stroke-opacity:1;paint-order:markers fill stroke;color-rendering:auto;image-rendering:auto;shape-rendering:auto;text-rendering:auto;enable-background:accumulate;stop-color:#000000;stop-opacity:1"
         d="m 138.79965,147.21201 1.17755,-21.1989 m 0.50246,-9.04549 1.49981,-27.000533 c 0.0797,-1.434682 -1.0622,-2.641761 -2.49909,-2.641761 H 99.07819 c -1.436836,0 -2.578626,1.207128 -2.498753,2.641742 l 4.925163,88.462142 c 0.0828,1.48624 1.30432,2.6534 2.79278,2.6684 l 29.95606,0.30187 c 1.48021,0.0149 2.71034,-1.13709 2.79244,-2.6151 l 0.93479,-16.8286" /><path
         id="rect1-2"
         style="color:#000000;font-style:normal;font-variant:normal;font-weight:normal;font-stretch:normal;font-size:medium;line-height:normal;font-family:sans-serif;font-variant-ligatures:normal;font-variant-position:normal;font-variant-caps:normal;font-variant-numeric:normal;font-variant-alternates:normal;font-variant-east-asian:normal;font-feature-settings:normal;font-variation-settings:normal;text-indent:0;text-align:start;text-decoration-line:none;text-decoration-style:solid;text-decoration-color:#000000;letter-spacing:normal;word-spacing:normal;text-transform:none;writing-mode:lr-tb;direction:ltr;text-orientation:mixed;dominant-baseline:auto;baseline-shift:baseline;text-anchor:start;white-space:normal;shape-padding:0;shape-margin:0;inline-size:0;clip-rule:nonzero;display:inline;overflow:visible;visibility:visible;isolation:auto;mix-blend-mode:normal;color-interpolation:sRGB;color-interpolation-filters:linearRGB;solid-color:#000000;solid-opacity:1;fill:#fff3e8;fill-opacity:1;fill-rule:nonzero;stroke:#162041;stroke-width:3;stroke-linecap:round;stroke-linejoin:miter;stroke-miterlimit:4;stroke-dasharray:none;stroke-dashoffset:0;stroke-opacity:1;paint-order:markers fill stroke;color-rendering:auto;image-rendering:auto;shape-rendering:auto;text-rendering:auto;enable-background:accumulate;stop-color:#000000"
         d="m 126.06499,128.30482 0.54376,-9.78897 c 0.0247,-0.44552 -0.32985,-0.82035 -0.77604,-0.82035 h -12.54617 c -0.44619,0 -0.80075,0.37485 -0.77594,0.82034 l 1.52942,27.4703 c 0.0258,0.46154 0.40503,0.82398 0.86724,0.82864 l 9.30232,0.0937 c 0.45965,0.004 0.84165,-0.35311 0.86714,-0.81208 l 0.41743,-7.515 z" /><path
         id="path9"
         style="fill:#f4c2c2;fill-opacity:1;stroke:#162041;stroke-width:3.00038;stroke-linecap:round;stroke-dasharray:none;stroke-opacity:1"
         d="m 104.76994,74.341199 h -7.875871 a 2.4967504,2.4967504 133.33947 0 0 -2.492557,2.64139 l 0.306504,5.28195 a 2.8038181,2.8038181 43.339467 0 0 2.799109,2.64139 h 43.544495 a 2.8033626,2.8033626 136.65589 0 0 2.79868,-2.641415 l 0.30459,-5.263814 a 2.5024811,2.5024811 46.716813 0 0 -2.49298,-2.647042 l -3.21433,-0.0068 a 2488.1655,2488.1655 0.06092642 0 0 -5.29166,-0.0056 h -12.07831"
         transform="translate(0,-3.1750001)" /><g
         id="rect9"
         transform="translate(0,3.1750001)"
         style="fill:#f4c2c2;fill-opacity:1;stroke:#162041;stroke-width:3;stroke-linecap:round;stroke-dasharray:none;stroke-opacity:1"><path
           style="opacity:1;fill:#f4c2c2;fill-opacity:1;stroke:#162041;stroke-width:3;stroke-linecap:round;stroke-dasharray:none;stroke-opacity:1"
           d="m 108.8013,202.43374 h -3.48093 c -1.46125,0 -2.64583,-1.18459 -2.64583,-2.64584 v -13.38471 c 0,-1.46125 1.18458,-2.64584 2.64583,-2.64584 h 28.41693 c 1.46125,0 2.64583,1.18459 2.64583,2.64584 v 13.38471 c 0,1.46125 -1.18458,2.64584 -2.64583,2.64584 h -15.21061"
           id="path17" /></g></g><g
       id="g29"
       transform="translate(-2.8534934,-15.258914)"
       style="display:none"><path
         id="rect23"
         style="opacity:1;fill:#2d3b75;fill-opacity:1;stroke:#162041;stroke-width:3.89871;stroke-linecap:round;stroke-dasharray:none;stroke-opacity:1"
         d="m 67.599388,126.91729 v -10.5733 c 0,-1.46125 0.969167,-1.94342 2.30718,-1.36718 4.540725,1.95553 17.161137,5.49712 49.345692,5.80936 1.46092,0.0142 3.82987,0.0237 5.29112,0.0216 34.42518,-0.0499 48.11759,-3.86702 52.95728,-5.88674 1.34535,-0.56145 2.33922,-0.0383 2.33922,1.42294 v 11.80412 25.39207 11.99251 c 0,1.46125 -0.42661,3.81805 -1.49937,4.77811 -3.58788,3.21095 -15.71946,8.88829 -56.62517,8.61803 -38.306987,-0.2531 -49.498851,-5.46578 -52.76786,-8.538 -1.042623,-0.97986 -1.348092,-3.39689 -1.348092,-4.85814 v -10.31585"
         transform="matrix(1,0,0,0.94003085,0,14.434936)" /><path
         id="rect23-9"
         style="opacity:1;fill:#f4c2c2;fill-opacity:1;stroke:#162041;stroke-width:4.82306;stroke-linecap:round;stroke-dasharray:none;stroke-opacity:1"
         d="m 179.83988,157.68439 v 7.8483 c 0,1.46125 -0.28899,3.84738 -1.18968,4.97938 -1.45577,1.82964 -4.68291,4.43522 -11.82272,6.69268 -1.39295,0.44042 -3.68256,1.05284 -5.10616,1.3821 -6.03931,1.39679 -14.08962,2.52325 -24.81984,3.02825 -1.45963,0.0687 -3.82734,0.15362 -5.2881,0.1914 -2.3055,0.0596 -4.72115,0.0925 -7.25222,0.0958 -1.46125,0.002 -3.83041,-0.0137 -5.2915,-0.0353 -37.576648,-0.55674 -47.721146,-7.50386 -50.458938,-11.28076 -0.84649,-1.16777 -1.011334,-3.59232 -1.011334,-5.05357 l 0,-49.1887 c 0,-1.46125 -0.03268,-3.90353 0.646135,-5.17602 2.202213,-4.12819 11.620635,-11.889732 51.264017,-12.220193 1.46114,-0.01218 3.83029,-0.01201 5.2915,-0.0014 42.57433,0.308654 52.31049,8.072028 54.47156,12.209408 0.66607,1.27517 0.56728,3.72697 0.56728,5.18822 l 0,14.91103"
         transform="matrix(1,0,0,0.61423938,-0.0388943,8.4070763)" /><path
         id="rect23-9-2"
         style="fill:#f4c2c2;fill-opacity:1;stroke:#162041;stroke-width:4.78897;stroke-linecap:round;stroke-dasharray:none;stroke-opacity:1"
         d="m 68.245523,111.16797 c 2.202213,-4.12819 11.620635,-11.889732 51.264017,-12.220193 1.46114,-0.01218 3.83029,-0.01201 5.2915,-0.0014 42.57433,0.308654 52.31049,8.072028 54.47156,12.209408 0.66607,1.27517 0.56728,3.72697 0.56728,5.18822 v 49.1887 c 0,1.46125 -0.28898,3.84734 -1.18963,4.97932 -3.1055,3.90311 -14.27234,11.3376 -54.28921,11.39033 -1.46118,0.002 -3.83029,-0.0137 -5.29138,-0.0353 -37.57664,-0.55676 -47.721142,-7.50386 -50.458936,-11.28076 -0.846491,-1.16777 -1.011336,-3.59232 -1.011336,-5.05357 l 0,-49.1887 c 0,-1.46125 -0.03268,-3.90353 0.646135,-5.17602 z"
         transform="matrix(1.0006008,0,0,0.62264185,-0.03724878,-27.021034)"
         clip-path="url(#clipPath29)" /><path
         id="rect23-2"
         style="fill:#fff3e8;fill-opacity:1;stroke:#162041;stroke-width:9.93909;stroke-linecap:round;stroke-dasharray:none;stroke-opacity:1"
         d="m 69.906568,114.97681 c 4.540725,1.95553 17.161137,5.49712 49.345692,5.80936 1.46092,0.0142 3.82987,0.0237 5.29112,0.0216 34.42518,-0.0499 48.11759,-3.86702 52.95728,-5.88674 1.34535,-0.56145 2.33922,-0.0383 2.33922,1.42294 v 11.80412 25.39207 11.99251 c 0,1.46125 -0.42661,3.81805 -1.49937,4.77811 -3.50932,3.14065 -15.19233,8.64087 -53.97953,8.62732 -1.46115,-5.1e-4 -3.83022,-0.0161 -5.29134,-0.0351 -36.180896,-0.47013 -46.929671,-5.51186 -50.12216,-8.51217 -1.042623,-0.97986 -1.348092,-3.39689 -1.348092,-4.85814 l 0,-49.1887 c 0,-1.46125 0.969167,-1.94342 2.30718,-1.36718 z"
         transform="matrix(0.3922602,0,0,0.36873669,75.462874,100.32721)" /></g><g
       id="g36"
       transform="matrix(1.5948755,0,0,1.5948755,-75.943211,-67.160663)"
       style="display:inline"><path
         id="rect30"
         style="opacity:1;fill:#2d3b75;fill-opacity:1;stroke:#162041;stroke-width:3.707;stroke-linecap:round;stroke-dasharray:none;stroke-opacity:1"
         d="m 147.04232,148.29271 v 23.13746 c 0,0 -0.39404,2.57185 -10.26357,3.74217 -6.27053,0.74356 -16.58396,0.79323 -22.82774,-0.1375 -3.53564,-0.52705 -5.69436,-1.27007 -7.00664,-1.94609 -1.27822,-0.65847 -1.99223,-2.8606 -1.99223,-4.32185 v -52.05719 c 0,-1.46125 -0.0313,-3.84945 0.30583,-5.26788 1.18238,-4.97543 5.65521,-8.67618 10.9924,-8.67618 h 9.5628 l 10.50392,0 a 10.725233,10.725233 45 0 1 10.72523,10.72523 v 10.20368"
         transform="translate(0,4.7625002)" /><path
         id="rect30-6"
         style="fill:#fff3e8;fill-opacity:1;stroke:#162041;stroke-width:8.01428;stroke-linecap:round;stroke-dasharray:none;stroke-opacity:1"
         d="m 116.25037,102.76565 h 9.5628 9.78884 a 11.440305,11.440305 45 0 1 11.44031,11.4403 v 57.22422 c 0,0 -0.66035,4.31001 -21.68281,4.31001 -19.01313,0 -20.40737,-4.32745 -20.40737,-4.32745 v -57.34885 c 0,-6.23984 5.05839,-11.29823 11.29823,-11.29823 z"
         transform="matrix(0.46254944,0,0,0.46254944,67.97719,78.593935)" /><path
         id="rect31"
         transform="translate(0,5.2916669)"
         d="m 117.06902,95.613955 h -3.4126 c -1.46126,4e-6 -2.64584,-1.184578 -2.64584,-2.645834 V 81.76991 c 0,-1.461256 1.18458,-2.645837 2.64584,-2.645833 h 23.95281 c 1.46125,2e-6 2.64583,1.184581 2.64583,2.645833 v 11.198211 c 0,1.461252 -1.18458,2.645832 -2.64583,2.645834 h -3.77702"
         style="opacity:1;fill:#f4c2c2;fill-opacity:1;stroke:#162041;stroke-width:3.707;stroke-linecap:round;stroke-linejoin:miter;stroke-dasharray:none;stroke-dashoffset:0;stroke-opacity:1;paint-order:normal" /><path
         style="opacity:1;fill:#f4c2c2;fill-opacity:1;stroke:#162041;stroke-width:3.707;stroke-linecap:round;stroke-linejoin:miter;stroke-dasharray:none;stroke-dashoffset:0;stroke-opacity:1;paint-order:normal"
         id="rect32"
         width="14.236922"
         height="17.908888"
         x="118.85576"
         y="58.880306"
         transform="translate(0,1.5875)"
         d="m 125.00911,58.880306 1.88467,0 a 6.1989008,6.1989008 45 0 1 6.1989,6.198901 v 9.064154 a 2.6458333,2.6458333 135 0 1 -2.64583,2.645833 h -8.94526 a 2.6458333,2.6458333 45 0 1 -2.64583,-2.645833 v -9.109706 a 6.1533486,6.1533486 135 0 1 6.15335,-6.153349 z" /></g><g
       id="g40"
       transform="matrix(1.2652819,0,0,1.2652819,-36.241237,-34.517207)"
       style="display:none"><path
         id="rect38"
         style="opacity:1;fill:#2d3b75;fill-opacity:1;stroke:#162041;stroke-width:3.678;stroke-linecap:round;stroke-dasharray:none;stroke-opacity:1"
         d="m 148.42475,157.02127 v 34.66678 c 0,1.46125 -1.1547,2.91151 -2.5884,3.19368 -3.41966,0.67302 -9.78416,1.75607 -16.37514,2.00175 -1.45951,0.0544 -3.82886,0.0547 -5.28956,0.0158 -7.26759,-0.19319 -12.39054,-1.14945 -15.2066,-1.83796 -1.41871,-0.34686 -2.54244,-1.91205 -2.54244,-3.3733 V 86.153062 a 2.6458333,2.6458333 135 0 1 2.64583,-2.645833 h 36.71048 a 2.6458333,2.6458333 45 0 1 2.64583,2.645833 l 0,26.044888"
         transform="translate(0,4.2333335)" /><path
         id="rect38-1"
         style="opacity:1;fill:#fff3e8;fill-opacity:1;stroke:#162041;stroke-width:8.23665;stroke-linecap:round;stroke-dasharray:none;stroke-opacity:1"
         d="m 148.42475,161.51651 v 30.17154 c 0,1.46125 -1.1547,2.91151 -2.5884,3.19368 -3.41966,0.67302 -9.78416,1.75607 -16.37514,2.00175 -1.45951,0.0544 -3.82886,0.0547 -5.28956,0.0158 -7.26759,-0.19319 -12.39054,-1.14945 -15.2066,-1.83796 -1.41871,-0.34686 -2.54244,-1.91205 -2.54244,-3.3733 V 86.153062 a 2.6458333,2.6458333 135 0 1 2.64583,-2.645833 h 36.71048 a 2.6458333,2.6458333 45 0 1 2.64583,2.645833 l 0,40.009158"
         transform="matrix(0.44654077,0,0,0.44654077,70.459849,78.104817)" /><path
         id="rect39"
         d="m 138.504,51.018406 h 7.31041 c 1.46126,-4e-6 2.64584,1.184577 2.64584,2.645833 v 23.6795 c 0,1.461256 -1.18458,2.645838 -2.64584,2.645834 h -36.75876 c -1.46126,4e-6 -2.64584,-1.184578 -2.64584,-2.645834 v -23.6795 c 0,-1.461256 1.18458,-2.645837 2.64584,-2.645833 h 6.90119"
         style="opacity:1;fill:#f4c2c2;fill-opacity:1;stroke:#162041;stroke-width:3.74602;stroke-linecap:round;stroke-linejoin:miter;stroke-dasharray:none;stroke-dashoffset:0;stroke-opacity:1;paint-order:normal" /></g></g></svg>
