<svg
   width="88mm"
   height="88mm"
   viewBox="0 0 88 88"
   version="1.1"
   xmlns="http://www.w3.org/2000/svg">
  <g transform="translate(-10.048503,-89.156026)" style="fill:currentColor; fill-opacity:1; stroke:currentColor; stroke-width:2;">
    <path
       d="M 31.722592,119.84812 H 77.72155 c 4.44478,0 8.02307,1.21782 8.02307,3.73315 v 48.93452 c 0,2.51534 -3.57829,3.22867 -8.02307,3.22867 -15.332986,0 -30.665972,0 -45.998958,0 -4.444783,0 -8.023073,-0.71333 -8.023073,-3.22867 v -48.93452 c 0,-2.51533 3.57829,-3.73315 8.023073,-3.73315 z"
    />
    <path
       d="m 42.740514,124.58143 c 0,-7.95643 0,-15.91288 4.084557,-19.8911 1.945366,-1.89472 4.817181,-2.88703 7.73295,-2.97693 3.206285,-0.0989 6.465719,0.89347 8.604868,2.97701 4.084475,3.9783 4.084475,11.93459 4.02735,15.9128 -0.05713,3.97822 -0.171375,3.97822 -0.285627,3.97822"
    />
    <path
       d="M 55.268697,103.69155 V 92.588297"
       style="stroke-width:6.4336"
    />
    <rect
       width="42"
       height="6"
       x="39.849411"
       y="90.228279"
       ry="3"
    />
  </g>
</svg>
